<?xml version="1.0" encoding="UTF-8"?>
<svg xmlns="http://www.w3.org/2000/svg" viewBox="0 0 32 32" width="166" height="166" fill="#ffffff" aria-hidden="true">
  <path d="M17.5 4C15.57 4 14 5.57 14 7.5C14 9.43 15.57 11 17.5 11C19.43 11 21 9.43 21 7.5C21 5.57 19.43 4 17.5 4zM17.5 6C18.327 6 19 6.673 19 7.5C19 8.327 18.327 9 17.5 9C16.673 9 16 8.327 16 7.5C16 6.673 16.673 6 17.5 6zM13.15625 12C12.05325 12 11.060953 12.654922 10.626953 13.669922L8.6601562 18.255859C8.1411562 19.467859 8.4643906 20.858672 9.5253906 21.763672L13.943359 25L7 25L7 27L15.484375 27C16.133375 27 16.706203 26.587703 16.908203 25.970703C17.110203 25.353703 16.892141 24.681828 16.369141 24.298828L10.767578 20.197266C10.433578 19.911266 10.325047 19.448922 10.498047 19.044922L12.464844 14.457031C12.667844 13.983031 13.368844 13.866141 13.714844 14.244141L16.148438 18.232422L16.220703 18.335938C16.535703 18.728937 17.005813 18.971047 17.507812 18.998047C18.018813 19.024047 18.502422 18.836469 18.857422 18.480469L22.779297 13.628906L21.222656 12.371094L17.630859 16.822266L15.380859 13.136719L15.308594 13.033203C14.782594 12.376203 13.99725 12 13.15625 12z"/>
</svg>